<?xml version="1.0" encoding="UTF-8" standalone="no"?>
<!-- Created with Inkscape (http://www.inkscape.org/) -->

<svg
   xmlns:dc="http://purl.org/dc/elements/1.1/"
   xmlns:cc="http://creativecommons.org/ns#"
   xmlns:rdf="http://www.w3.org/1999/02/22-rdf-syntax-ns#"
   xmlns:svg="http://www.w3.org/2000/svg"
   xmlns="http://www.w3.org/2000/svg"
   xmlns:sodipodi="http://sodipodi.sourceforge.net/DTD/sodipodi-0.dtd"
   xmlns:inkscape="http://www.inkscape.org/namespaces/inkscape"
   width="64"
   height="62.401001"
   viewBox="0 0 16.933333 16.510265"
   version="1.1"
   id="svg8"
   inkscape:version="0.92.3 (2405546, 2018-03-11)"
   sodipodi:docname="github.svg">
  <defs
     id="defs2" />
  <sodipodi:namedview
     id="base"
     pagecolor="#ffffff"
     bordercolor="#666666"
     borderopacity="1.0"
     inkscape:pageopacity="0.0"
     inkscape:pageshadow="2"
     inkscape:zoom="3.959798"
     inkscape:cx="66.34536"
     inkscape:cy="15.573923"
     inkscape:document-units="mm"
     inkscape:current-layer="layer1"
     showgrid="false"
     units="px"
     inkscape:window-width="1600"
     inkscape:window-height="845"
     inkscape:window-x="0"
     inkscape:window-y="27"
     inkscape:window-maximized="1" />
  <metadata
     id="metadata5">
    <rdf:RDF>
      <cc:Work
         rdf:about="">
        <dc:format>image/svg+xml</dc:format>
        <dc:type
           rdf:resource="http://purl.org/dc/dcmitype/StillImage" />
        <dc:title></dc:title>
      </cc:Work>
    </rdf:RDF>
  </metadata>
  <g
     inkscape:label="Layer 1"
     inkscape:groupmode="layer"
     id="layer1"
     transform="translate(0,-280.48974)">
    <path
       id="path10"
       d="m 5.6637919,293.78378 c 0,0.0683 -0.078521,0.1229 -0.1775266,0.1229 -0.1126607,0.0102 -0.1911832,-0.0444 -0.1911832,-0.1229 0,-0.0683 0.078523,-0.12291 0.1775277,-0.12291 0.1024195,-0.0102 0.1911821,0.0444 0.1911821,0.12291 z m -1.0617475,-0.15363 c -0.023897,0.0683 0.044382,0.1468 0.1468012,0.16728 0.088764,0.0341 0.1911834,0 0.2116672,-0.0683 0.020484,-0.0683 -0.044382,-0.1468 -0.1468012,-0.17752 -0.088764,-0.0239 -0.1877692,0.0102 -0.2116672,0.0785 z m 1.5089799,-0.058 c -0.099007,0.0239 -0.1672852,0.0888 -0.157044,0.16729 0.010245,0.0683 0.099005,0.11266 0.2014247,0.0888 0.099006,-0.0239 0.1672852,-0.0888 0.1570439,-0.15705 -0.010245,-0.0649 -0.1024194,-0.10924 -0.2014246,-0.099 z M 8.3574225,280.48974 C 3.6222323,280.48974 0,284.08466 0,288.81985 c 0,3.7861 2.3829583,7.02597 5.7866951,8.16624 0.4369898,0.0785 0.5906196,-0.19118 0.5906196,-0.41309 0,-0.21167 -0.010245,-1.37925 -0.010245,-2.09619 0,0 -2.3897867,0.5121 -2.891641,-1.01736 0,0 -0.3891938,-0.99347 -0.9490868,-1.24952 0,0 -0.7818016,-0.53599 0.054623,-0.52575 0,0 0.8500816,0.0683 1.3177967,0.8808 0.7476622,1.3178 2.0005916,0.93885 2.488792,0.71353 0.078521,-0.54624 0.3004296,-0.92519 0.5462362,-1.15051 -1.9084149,-0.21167 -3.8338995,-0.4882 -3.8338995,-3.77245 0,-0.93885 0.2594621,-1.40998 0.8056997,-2.01083 -0.088764,-0.22191 -0.3789524,-1.13686 0.088763,-2.3181 0.7135228,-0.22191 2.355646,0.92178 2.355646,0.92178 0.6827965,-0.19119 1.416802,-0.29019 2.1439801,-0.29019 0.7271772,0 1.4611826,0.099 2.1439789,0.29019 0,0 1.642125,-1.1471 2.355648,-0.92178 0.467715,1.18465 0.177526,2.09619 0.08876,2.3181 0.546238,0.60427 0.880807,1.0754 0.880807,2.01083 0,3.29449 -2.010834,3.55737 -3.919249,3.77245 0.314086,0.2697 0.580377,0.7818 0.580377,1.58408 0,1.15051 -0.01024,2.57414 -0.01024,2.85409 0,0.22191 0.157043,0.49161 0.590618,0.41309 3.413979,-1.13344 5.728657,-4.37331 5.728657,-8.15941 0,-4.73519 -3.840727,-8.33011 -8.575917,-8.33011 z m -5.0390343,11.77482 c -0.044382,0.0341 -0.034139,0.11265 0.023897,0.17752 0.054623,0.0546 0.1331444,0.0785 0.1775264,0.0341 0.044382,-0.0341 0.03414,-0.11266 -0.023897,-0.17753 -0.054623,-0.0546 -0.1331447,-0.0785 -0.1775265,-0.0341 z m -0.3687095,-0.27654 c -0.023897,0.0444 0.010245,0.099 0.078521,0.13315 0.054623,0.0341 0.1229032,0.0239 0.1468014,-0.0239 0.023897,-0.0444 -0.010245,-0.099 -0.078521,-0.13315 -0.06828,-0.0205 -0.1229032,-0.0102 -0.1468014,0.0239 z m 1.1061292,1.21538 c -0.054623,0.0444 -0.034139,0.1468 0.044382,0.21167 0.078521,0.0785 0.1775267,0.0888 0.2219084,0.0341 0.044382,-0.0444 0.023897,-0.14681 -0.044382,-0.21167 -0.075107,-0.0785 -0.1775267,-0.0888 -0.2219084,-0.0341 z m -0.3891936,-0.50186 c -0.054623,0.0341 -0.054623,0.12291 0,0.20143 0.054623,0.0785 0.1468014,0.11266 0.1911834,0.0785 0.054623,-0.0444 0.054623,-0.13314 0,-0.21167 -0.047796,-0.0785 -0.1365602,-0.11266 -0.1911834,-0.0683 z"
       inkscape:connector-curvature="0"
       style="fill:#0080ff;stroke-width:0.26458332" />
  </g>
</svg>
