<?xml version="1.0" encoding="UTF-8" standalone="no"?>
<!-- Created with Inkscape (http://www.inkscape.org/) -->

<svg
   xmlns:dc="http://purl.org/dc/elements/1.1/"
   xmlns:cc="http://creativecommons.org/ns#"
   xmlns:rdf="http://www.w3.org/1999/02/22-rdf-syntax-ns#"
   xmlns:svg="http://www.w3.org/2000/svg"
   xmlns="http://www.w3.org/2000/svg"
   xmlns:sodipodi="http://sodipodi.sourceforge.net/DTD/sodipodi-0.dtd"
   xmlns:inkscape="http://www.inkscape.org/namespaces/inkscape"
   width="64"
   height="62.401001"
   viewBox="0 0 16.933333 16.510265"
   version="1.1"
   id="svg8"
   inkscape:version="0.92.3 (2405546, 2018-03-11)"
   sodipodi:docname="github.svg">
  <defs
     id="defs2" />
  <sodipodi:namedview
     id="base"
     pagecolor="#ffffff"
     bordercolor="#666666"
     borderopacity="1.0"
     inkscape:pageopacity="0.0"
     inkscape:pageshadow="2"
     inkscape:zoom="3.959798"
     inkscape:cx="43.200693"
     inkscape:cy="55.669153"
     inkscape:document-units="mm"
     inkscape:current-layer="layer1"
     showgrid="false"
     units="px"
     inkscape:window-width="1600"
     inkscape:window-height="845"
     inkscape:window-x="0"
     inkscape:window-y="27"
     inkscape:window-maximized="1" />
  <metadata
     id="metadata5">
    <rdf:RDF>
      <cc:Work
         rdf:about="">
        <dc:format>image/svg+xml</dc:format>
        <dc:type
           rdf:resource="http://purl.org/dc/dcmitype/StillImage" />
        <dc:title></dc:title>
      </cc:Work>
    </rdf:RDF>
  </metadata>
  <g
     inkscape:label="Layer 1"
     inkscape:groupmode="layer"
     id="layer1"
     transform="translate(0,-280.48973)">
    <path
       id="path10"
       d="m 5.663792,293.78377 c 0,0.0683 -0.078521,0.12291 -0.1775266,0.12291 -0.1126607,0.0102 -0.1911833,-0.0444 -0.1911833,-0.12291 0,-0.0683 0.078523,-0.1229 0.1775278,-0.1229 0.1024194,-0.0102 0.1911821,0.0444 0.1911821,0.1229 z m -1.0617476,-0.15363 c -0.023898,0.0683 0.044382,0.14681 0.1468014,0.16729 0.088764,0.0341 0.1911833,0 0.2116672,-0.0683 0.020484,-0.0683 -0.044382,-0.1468 -0.1468014,-0.17753 -0.088764,-0.0239 -0.1877691,0.0102 -0.2116672,0.0785 z m 1.50898,-0.058 c -0.099006,0.0239 -0.1672852,0.0888 -0.1570439,0.16728 0.010245,0.0683 0.099005,0.11266 0.2014246,0.0888 0.099006,-0.0239 0.1672852,-0.0888 0.1570439,-0.15704 -0.010245,-0.0649 -0.1024194,-0.10925 -0.2014246,-0.099 z m 2.2463983,-13.0824 C 3.6222324,280.48974 0,284.08466 0,288.81985 c 0,3.7861 2.3829584,7.02597 5.7866952,8.16624 0.4369899,0.0785 0.5906196,-0.19119 0.5906196,-0.4131 0,-0.21166 -0.010245,-1.37924 -0.010245,-2.09618 0,0 -2.3897868,0.5121 -2.8916412,-1.01737 0,0 -0.3891937,-0.99346 -0.9490868,-1.24951 0,0 -0.7818016,-0.536 0.054623,-0.52575 0,0 0.8500816,0.0683 1.3177967,0.8808 0.7476622,1.3178 2.0005917,0.93885 2.4887919,0.71352 0.078521,-0.54623 0.3004298,-0.92518 0.5462364,-1.15051 -1.908415,-0.21166 -3.8338996,-0.4882 -3.8338996,-3.77245 0,-0.93884 0.259462,-1.40997 0.8056997,-2.01083 -0.088764,-0.22191 -0.3789525,-1.13686 0.088763,-2.31809 0.7135228,-0.22191 2.3556461,0.92177 2.3556461,0.92177 0.6827964,-0.19118 1.4168018,-0.29019 2.1439802,-0.29019 0.7271771,0 1.4611825,0.099 2.1439788,0.29019 0,0 1.642124,-1.14709 2.355647,-0.92177 0.467715,1.18465 0.177527,2.09618 0.08876,2.31809 0.546237,0.60427 0.880807,1.0754 0.880807,2.01083 0,3.2945 -2.010835,3.55737 -3.91925,3.77245 0.314087,0.26971 0.580377,0.7818 0.580377,1.58409 0,1.15051 -0.01024,2.57414 -0.01024,2.85409 0,0.22191 0.157043,0.49161 0.590618,0.41309 3.41398,-1.13344 5.728658,-4.37331 5.728658,-8.15941 0,-4.73519 -3.840726,-8.33011 -8.5759164,-8.33011 z m -5.0390343,11.77481 c -0.044382,0.0341 -0.034139,0.11266 0.023898,0.17753 0.054623,0.0546 0.1331446,0.0785 0.1775265,0.0341 0.044382,-0.0341 0.034139,-0.11266 -0.023898,-0.17753 -0.054623,-0.0546 -0.1331446,-0.0785 -0.1775265,-0.0341 z m -0.3687098,-0.27653 c -0.023898,0.0444 0.010245,0.099 0.078521,0.13314 0.054623,0.0342 0.1229033,0.0239 0.1468014,-0.0239 0.023898,-0.0444 -0.010245,-0.099 -0.078521,-0.13315 -0.06828,-0.0205 -0.1229033,-0.0102 -0.1468014,0.0239 z m 1.1061295,1.21538 c -0.054623,0.0444 -0.034139,0.1468 0.044382,0.21166 0.078521,0.0785 0.1775266,0.0888 0.2219085,0.0341 0.044382,-0.0444 0.023898,-0.1468 -0.044382,-0.21166 -0.075107,-0.0785 -0.1775266,-0.0888 -0.2219085,-0.0341 z m -0.3891937,-0.50186 c -0.054623,0.0341 -0.054623,0.1229 0,0.20143 0.054623,0.0785 0.1468013,0.11266 0.1911833,0.0785 0.054623,-0.0444 0.054623,-0.13315 0,-0.21167 -0.047796,-0.0785 -0.1365601,-0.11266 -0.1911833,-0.0683 z"
       inkscape:connector-curvature="0"
       style="fill:#0080ff;stroke-width:0.26458332" />
  </g>
</svg>
