<?xml version="1.0" encoding="UTF-8" standalone="no"?>
<!-- Created with Inkscape (http://www.inkscape.org/) -->

<svg
   xmlns:dc="http://purl.org/dc/elements/1.1/"
   xmlns:cc="http://creativecommons.org/ns#"
   xmlns:rdf="http://www.w3.org/1999/02/22-rdf-syntax-ns#"
   xmlns:svg="http://www.w3.org/2000/svg"
   xmlns="http://www.w3.org/2000/svg"
   xmlns:sodipodi="http://sodipodi.sourceforge.net/DTD/sodipodi-0.dtd"
   xmlns:inkscape="http://www.inkscape.org/namespaces/inkscape"
   width="64"
   height="51.202"
   viewBox="0 0 16.933333 13.547195"
   version="1.1"
   id="svg8"
   inkscape:version="0.92.3 (2405546, 2018-03-11)"
   sodipodi:docname="github.svg">
  <defs
     id="defs2" />
  <sodipodi:namedview
     id="base"
     pagecolor="#ffffff"
     bordercolor="#666666"
     borderopacity="1.0"
     inkscape:pageopacity="0.0"
     inkscape:pageshadow="2"
     inkscape:zoom="1.979899"
     inkscape:cx="94.142136"
     inkscape:cy="7.3612139"
     inkscape:document-units="mm"
     inkscape:current-layer="layer1"
     showgrid="false"
     units="px"
     inkscape:window-width="1600"
     inkscape:window-height="845"
     inkscape:window-x="0"
     inkscape:window-y="27"
     inkscape:window-maximized="1" />
  <metadata
     id="metadata5">
    <rdf:RDF>
      <cc:Work
         rdf:about="">
        <dc:format>image/svg+xml</dc:format>
        <dc:type
           rdf:resource="http://purl.org/dc/dcmitype/StillImage" />
        <dc:title></dc:title>
      </cc:Work>
    </rdf:RDF>
  </metadata>
  <g
     inkscape:label="Layer 1"
     inkscape:groupmode="layer"
     id="layer1"
     transform="translate(0,-283.45281)">
    <path
       id="path46"
       d="m 6.5652526,292.79091 c 0,0.73731 -0.3845311,1.94382 -1.2947058,1.94382 -0.9101748,0 -1.2947059,-1.20651 -1.2947059,-1.94382 0,-0.73732 0.3845311,-1.94383 1.2947059,-1.94383 0.9101747,0 1.2947058,1.20651 1.2947058,1.94383 z m 10.3682314,-1.78154 c 0,1.12537 -0.11289,2.31777 -0.617367,3.35142 -1.337042,2.7023 -5.013017,2.6388 -7.6447623,2.6388 -2.6740792,0 -6.5687805,0.0953 -7.95873731,-2.6388 C 0.19755722,293.33772 0,292.13474 0,291.00937 c 0,-1.47816 0.49036541,-2.87517 1.4640407,-4.0076 -0.183446,-0.5574 -0.2716413,-1.14301 -0.2716413,-1.72157 0,-0.75847 0.1728628,-1.13948 0.5150602,-1.8274 1.5980975,0 2.6211621,0.3175 3.8382563,1.27001 1.0230647,-0.24342 2.0743517,-0.35278 3.1291667,-0.35278 0.9525085,0 1.9120714,0.10231 2.8363584,0.32456 1.199455,-0.94193 2.222519,-1.24179 3.802979,-1.24179 0.345723,0.68792 0.515059,1.06893 0.515059,1.8274 0,0.57856 -0.09172,1.15359 -0.271643,1.70041 0.970148,1.14301 1.375847,2.5506 1.375848,4.02876 z m -2.268381,1.78154 c 0,-1.54871 -0.941925,-2.91397 -2.592941,-2.91397 -0.666754,0 -1.305288,0.11995 -1.975572,0.21167 -0.525644,0.0811 -1.0512875,0.11289 -1.5910422,0.11289 -0.5362271,0 -1.0618707,-0.0317 -1.5910421,-0.11289 -0.6597002,-0.0917 -1.3052893,-0.21167 -1.9755729,-0.21167 -1.6510146,0 -2.5929397,1.36526 -2.5929397,2.91397 0,3.09742 2.8363585,3.57367 5.3058248,3.57367 h 1.700404 c 2.4800491,0 5.3128791,-0.47273 5.3128811,-3.57367 z m -2.913971,-1.94383 c -0.910176,0 -1.294707,1.20651 -1.294707,1.94383 0,0.73731 0.384531,1.94382 1.294707,1.94382 0.910175,0 1.294706,-1.20651 1.294706,-1.94382 0,-0.73732 -0.384531,-1.94383 -1.294706,-1.94383 z"
       inkscape:connector-curvature="0"
       style="fill:#0080ff;stroke-width:0.26458332" />
  </g>
</svg>
