<?xml version="1.0" encoding="UTF-8" standalone="no"?>
<!-- Created with Inkscape (http://www.inkscape.org/) -->

<svg
   xmlns:dc="http://purl.org/dc/elements/1.1/"
   xmlns:cc="http://creativecommons.org/ns#"
   xmlns:rdf="http://www.w3.org/1999/02/22-rdf-syntax-ns#"
   xmlns:svg="http://www.w3.org/2000/svg"
   xmlns="http://www.w3.org/2000/svg"
   xmlns:sodipodi="http://sodipodi.sourceforge.net/DTD/sodipodi-0.dtd"
   xmlns:inkscape="http://www.inkscape.org/namespaces/inkscape"
   width="64"
   height="48"
   viewBox="0 0 16.933333 12.7"
   version="1.1"
   id="svg8"
   inkscape:version="0.92.3 (2405546, 2018-03-11)"
   sodipodi:docname="mail.svg">
  <defs
     id="defs2" />
  <sodipodi:namedview
     id="base"
     pagecolor="#ffffff"
     bordercolor="#666666"
     borderopacity="1.0"
     inkscape:pageopacity="0.0"
     inkscape:pageshadow="2"
     inkscape:zoom="5.6"
     inkscape:cx="50.462978"
     inkscape:cy="19.684009"
     inkscape:document-units="mm"
     inkscape:current-layer="layer1"
     showgrid="false"
     units="px"
     inkscape:window-width="1600"
     inkscape:window-height="845"
     inkscape:window-x="0"
     inkscape:window-y="27"
     inkscape:window-maximized="1" />
  <metadata
     id="metadata5">
    <rdf:RDF>
      <cc:Work
         rdf:about="">
        <dc:format>image/svg+xml</dc:format>
        <dc:type
           rdf:resource="http://purl.org/dc/dcmitype/StillImage" />
        <dc:title></dc:title>
      </cc:Work>
    </rdf:RDF>
  </metadata>
  <g
     inkscape:label="Layer 1"
     inkscape:groupmode="layer"
     id="layer1"
     transform="translate(0,-284.29998)">
    <path
       id="path815"
       d="M 15.345833,284.3 H 1.5874999 C 0.71073697,284.3 0,285.01074 0,285.8875 v 9.525 C 0,296.28926 0.71073697,297 1.5874999,297 H 15.345833 c 0.876763,0 1.5875,-0.71074 1.5875,-1.5875 v -9.525 c 0,-0.87676 -0.710737,-1.5875 -1.5875,-1.5875 z m 0,1.5875 v 1.34954 c -0.741561,0.60388 -1.923786,1.54288 -4.451185,3.52193 -0.556981,0.43812 -1.6602932,1.49067 -2.4279817,1.4784 -0.7675562,0.0124 -1.8712325,-1.04045 -2.427982,-1.4784 C 3.511682,288.78022 2.32916,287.84102 1.5874999,287.23704 v -1.34954 z m -13.7583331,9.525 v -6.1384 c 0.7578328,0.60361 1.8325373,1.45064 3.4706055,2.73334 0.7228747,0.56902 1.9888067,1.82516 3.4085609,1.81752 1.4127758,0.008 2.6626677,-1.23027 3.4082637,-1.81725 1.638034,-1.28267 2.713037,-2.12993 3.470903,-2.73358 v 6.13837 z"
       inkscape:connector-curvature="0"
       style="fill:#ffffff;stroke-width:0.26458332" />
  </g>
</svg>
